<?xml version="1.0" encoding="utf-8"?>
<!-- Generator: Adobe Illustrator 23.0.1, SVG Export Plug-In . SVG Version: 6.00 Build 0)  -->
<svg version="1.1" id="Layer_1" xmlns="http://www.w3.org/2000/svg" xmlns:xlink="http://www.w3.org/1999/xlink" x="0px" y="0px"
	 viewBox="0 0 53.1 171.4" style="enable-background:new 0 0 53.1 171.4;" xml:space="preserve">
<style type="text/css">
	.st0{fill:#FFFFFF;}
</style>
<path d="M0,0h53.1v171.4H0V0z"/>
<g>
	<path class="st0" d="M30,151.6c-0.5,1-1.4,1.7-2.5,1.9l-1-1.5c0.6-0.2,1.1-0.4,1.5-0.7c0.4-0.3,0.6-0.8,0.6-1.3
		c0-0.4-0.1-0.7-0.3-1c-0.2-0.2-0.5-0.4-0.9-0.4c-0.3,0-0.5,0.1-0.7,0.2c-0.2,0.2-0.4,0.4-0.5,0.6c-0.1,0.2-0.3,0.6-0.6,1.1
		l-0.2,0.4c-0.3,0.6-0.7,1.1-1.1,1.4c-0.4,0.4-1,0.5-1.7,0.5c-0.5,0-1-0.1-1.4-0.4c-0.4-0.2-0.7-0.6-1-1s-0.4-0.9-0.4-1.5
		c0-1.4,0.6-2.4,1.9-2.9l1,1.5c-0.7,0.3-1.1,0.7-1.1,1.4c0,0.3,0.1,0.5,0.3,0.7c0.2,0.2,0.4,0.3,0.7,0.3s0.5-0.1,0.7-0.3
		c0.2-0.2,0.4-0.4,0.5-0.7c0.1-0.3,0.3-0.6,0.5-1.1c0.2-0.5,0.5-0.9,0.7-1.2c0.2-0.3,0.6-0.6,0.9-0.8c0.4-0.2,0.8-0.3,1.4-0.3
		c0.6,0,1.2,0.1,1.6,0.4c0.5,0.3,0.8,0.7,1.1,1.2s0.4,1.1,0.4,1.7C30.4,150.5,30.3,151.1,30,151.6 M21.6,145
		c-0.2,0.2-0.5,0.3-0.8,0.3c-0.3,0-0.6-0.1-0.8-0.3s-0.3-0.5-0.3-0.8c0-0.3,0.1-0.6,0.3-0.8s0.5-0.3,0.8-0.3c0.3,0,0.6,0.1,0.8,0.3
		s0.3,0.5,0.3,0.8C22,144.5,21.9,144.8,21.6,145 M22.9,143.3h7.4v1.8h-7.4V143.3z M29.7,140.2c-0.5,0.5-1.1,0.7-2,0.7h-3.2v1.1h-1.5
		v-1.1h-1.8l-1.1-1.8h3v-1.9h1.5v1.9h3.2c0.4,0,0.7-0.1,0.9-0.2c0.2-0.2,0.3-0.4,0.3-0.7c0-0.2-0.1-0.5-0.2-0.7l1.5-0.4
		c0.2,0.4,0.3,0.8,0.3,1.2C30.4,139.1,30.2,139.7,29.7,140.2 M29.8,134.7c-0.4,0.5-0.9,0.9-1.4,1.2c-0.6,0.2-1.2,0.4-1.8,0.4
		s-1.2-0.1-1.8-0.4c-0.6-0.2-1.1-0.7-1.4-1.2c-0.4-0.5-0.6-1.2-0.6-2c0-0.8,0.2-1.4,0.5-1.9c0.3-0.5,0.8-0.9,1.4-1.1
		c0.5-0.2,1.1-0.4,1.7-0.4h0.7v5.1c0.4,0,0.9-0.2,1.2-0.5c0.3-0.3,0.5-0.7,0.5-1.2c0-0.4-0.1-0.8-0.3-1c-0.2-0.3-0.5-0.5-0.9-0.8
		l0.5-1.5c0.7,0.3,1.2,0.7,1.6,1.3c0.4,0.5,0.6,1.2,0.6,2.1C30.4,133.5,30.2,134.2,29.8,134.7 M25.7,131.1c-0.4,0.1-0.7,0.3-1,0.5
		s-0.4,0.6-0.4,1.1c0,0.4,0.1,0.8,0.4,1.1s0.6,0.5,1,0.5L25.7,131.1L25.7,131.1z M29.9,122.6c-0.3,0.6-0.8,1-1.4,1.3
		c-0.6,0.3-1.2,0.4-1.9,0.4c-0.7,0-1.4-0.1-1.9-0.4c-0.6-0.3-1-0.7-1.4-1.3s-0.5-1.2-0.5-2c0-0.8,0.2-1.4,0.5-2
		c0.3-0.6,0.8-1,1.4-1.3c0.6-0.3,1.2-0.4,1.9-0.4c0.7,0,1.4,0.1,1.9,0.4c0.6,0.3,1,0.7,1.4,1.3c0.3,0.6,0.5,1.2,0.5,2
		C30.4,121.4,30.2,122.1,29.9,122.6 M28.2,119.3c-0.4-0.3-1-0.5-1.6-0.5s-1.2,0.2-1.6,0.5c-0.4,0.3-0.6,0.8-0.6,1.3
		c0,0.6,0.2,1,0.6,1.3c0.4,0.3,1,0.5,1.6,0.5s1.2-0.2,1.6-0.5c0.4-0.3,0.6-0.8,0.6-1.3C28.8,120.1,28.6,119.6,28.2,119.3
		 M24.5,115.2v0.9h-1.5v-0.9h-0.4c-0.9,0-1.5-0.2-2-0.7c-0.4-0.5-0.6-1.1-0.6-1.9c0-0.6,0.1-1,0.3-1.4l1.5,0.4
		c-0.1,0.3-0.2,0.6-0.2,0.9c0,0.6,0.3,0.8,0.9,0.8h0.5v-1.6h1.5v1.6h5.8v1.8L24.5,115.2L24.5,115.2z M29.7,105.5
		c-0.5,0.5-1.1,0.7-2,0.7h-3.2v1.1h-1.5v-1.1h-1.8l-1.1-1.8h3v-1.9h1.5v1.9h3.2c0.4,0,0.7-0.1,0.9-0.2c0.2-0.2,0.3-0.4,0.3-0.7
		c0-0.2-0.1-0.5-0.2-0.7l1.5-0.4c0.2,0.4,0.3,0.8,0.3,1.2C30.4,104.4,30.2,105.1,29.7,105.5 M19.9,101.1v-1.8h4.2
		c-0.4-0.2-0.7-0.6-0.9-1c-0.2-0.4-0.4-0.9-0.4-1.4c0-0.7,0.2-1.3,0.6-1.7c0.4-0.4,0.9-0.6,1.7-0.6h5.3v1.8h-4.6
		c-0.4,0-0.8,0.1-1,0.3c-0.2,0.2-0.3,0.5-0.3,0.8c0,0.3,0.1,0.6,0.3,0.8c0.2,0.3,0.5,0.5,0.9,0.6c0.4,0.2,0.9,0.2,1.6,0.2h3.1v1.8
		H19.9z M29.8,91.5c-0.4,0.5-0.9,0.9-1.4,1.2c-1.2,0.5-2.5,0.5-3.6,0c-0.6-0.2-1.1-0.7-1.4-1.2c-0.4-0.5-0.6-1.2-0.6-2
		c0-0.8,0.2-1.4,0.5-1.9c0.3-0.5,0.8-0.9,1.4-1.1c0.5-0.2,1.1-0.4,1.7-0.4h0.7v5.1c0.4,0,0.8-0.2,1.2-0.5c0.3-0.3,0.5-0.7,0.5-1.2
		c0-0.4-0.1-0.8-0.3-1c-0.2-0.3-0.5-0.5-0.9-0.8l0.5-1.5c0.7,0.3,1.2,0.7,1.6,1.3c0.4,0.5,0.6,1.2,0.6,2.1
		C30.4,90.3,30.2,90.9,29.8,91.5 M25.7,87.9c-0.4,0.1-0.7,0.3-1,0.5c-0.3,0.3-0.4,0.6-0.4,1.1c0,0.4,0.1,0.8,0.4,1.1s0.6,0.5,1,0.5
		L25.7,87.9L25.7,87.9z M20,80.6v-3.2c0-0.8,0.2-1.6,0.6-2.4c0.4-0.7,0.9-1.3,1.7-1.7c0.8-0.4,1.7-0.7,2.9-0.7
		c1.1,0,2.1,0.2,2.9,0.7c0.8,0.4,1.3,1,1.7,1.7c0.4,0.7,0.6,1.5,0.6,2.4v3.2C30.3,80.6,20,80.6,20,80.6z M28.5,78
		c0-1-0.3-1.8-0.8-2.4c-0.5-0.7-1.4-1-2.6-1c-1.2,0-2.1,0.3-2.6,1c-0.5,0.7-0.8,1.5-0.8,2.4v0.7h6.7L28.5,78L28.5,78z M29.8,70.7
		c-0.4,0.4-0.9,0.6-1.7,0.6c-0.7,0-1.3-0.3-1.8-0.8s-0.7-1.3-0.7-2.3v-1.3h-0.3c-0.4,0-0.6,0.1-0.8,0.4s-0.3,0.6-0.3,0.9
		c0,0.6,0.3,1.1,0.8,1.3L24.8,71c-0.6-0.1-1.1-0.4-1.5-0.9c-0.4-0.5-0.6-1.1-0.6-1.9c0-1,0.3-1.7,0.8-2.3c0.5-0.5,1.3-0.8,2.3-0.8
		h4.4v1.5l-0.9,0.2c0.7,0.6,1.1,1.3,1.1,2.3C30.4,69.7,30.2,70.3,29.8,70.7 M28.4,67.4c-0.3-0.3-0.6-0.5-1.1-0.5h-0.1v1.2
		c0,0.4,0.1,0.7,0.2,0.9c0.2,0.2,0.4,0.3,0.7,0.3c0.2,0,0.4-0.1,0.5-0.2c0.1-0.2,0.2-0.3,0.2-0.6C28.9,68.2,28.7,67.8,28.4,67.4
		 M29.8,61.6l-6.9,2.7v-1.8l4.6-1.7l-4.6-1.6v-1.8l10.3,3.8v1.8L29.8,61.6z M35.5,17l-4.8,15h-3.3l-2.6-9.7L22.3,32H19l-4.8-15h3.7
		l2.7,10.3L23.1,17h3.4l2.5,10.3L31.8,17L35.5,17z M38,27.2c1.4,0,2.5,1.1,2.5,2.5c0,1.4-1.1,2.5-2.5,2.5s-2.5-1.1-2.5-2.5
		C35.5,28.2,36.6,27.2,38,27.2"/>
</g>
</svg>
